<?xml version="1.0" encoding="UTF-8" standalone="no"?>
<svg
   width="13"
   height="24"
   viewBox="0 0 13 24"
   version="1.1"
   id="svg54"
   sodipodi:docname="temp.svg"
   xmlns:inkscape="http://www.inkscape.org/namespaces/inkscape"
   xmlns:sodipodi="http://sodipodi.sourceforge.net/DTD/sodipodi-0.dtd"
   xmlns="http://www.w3.org/2000/svg"
   xmlns:svg="http://www.w3.org/2000/svg">
  <defs
     id="defs58" />
  <sodipodi:namedview
     id="namedview56"
     pagecolor="#ffffff"
     bordercolor="#000000"
     borderopacity="0.25"
     inkscape:showpageshadow="2"
     inkscape:pageopacity="0.0"
     inkscape:pagecheckerboard="0"
     inkscape:deskcolor="#d1d1d1"
     showgrid="false" />
  <path
     d="M 6.5,2 C 7.327,2 8,2.673 8,3.5 v 7.525 c 0,1.569 0.514,2.287 1.411,3.05 C 10.421,14.933 11,16.181 11,17.5 11,19.981 8.981,22 6.5,22 4.019,22 2,19.981 2,17.5 2,16.181 2.579,14.933 3.59,14.075 4.486,13.314 5,12.595 5,11.025 V 3.5 C 5,2.673 5.673,2 6.5,2 Z m 0,-2 C 4.567,0 3,1.567 3,3.5 v 7.525 C 3,11.612 2.742,12.17 2.295,12.55 0.892,13.742 0,15.515 0,17.5 0,21.09 2.909,24 6.5,24 10.091,24 13,21.09 13,17.5 13,15.515 12.108,13.742 10.705,12.55 10.258,12.17 10,11.612 10,11.025 V 3.5 C 10,1.567 8.433,0 6.5,0 Z M 8.607,14.718 C 4.3570275,14.69516 8.563061,14.6863 4.393,14.718 3.599,15.416 3,16.36 3,17.5 3,19.433 4.567,21 6.5,21 8.433,21 10,19.433 10,17.5 10,16.36 9.401,15.417 8.607,14.718 Z"
     id="path52"
     sodipodi:nodetypes="ssscssscsssssscssscsssccsssc"
     inkscape:export-filename="temp_cold.png"
     inkscape:export-xdpi="96"
     inkscape:export-ydpi="96" />
</svg>
