<?xml version="1.0" encoding="UTF-8" standalone="no"?>
<svg
   width="24"
   height="24"
   viewBox="0 0 24 24"
   version="1.1"
   id="svg1"
   sodipodi:docname="iconmonstr-dashboard-7.svg"
   inkscape:version="1.3.2 (091e20ef0f, 2023-11-25, custom)"
   xmlns:inkscape="http://www.inkscape.org/namespaces/inkscape"
   xmlns:sodipodi="http://sodipodi.sourceforge.net/DTD/sodipodi-0.dtd"
   xmlns="http://www.w3.org/2000/svg"
   xmlns:svg="http://www.w3.org/2000/svg">
  <defs
     id="defs1" />
  <sodipodi:namedview
     id="namedview1"
     pagecolor="#ffffff"
     bordercolor="#000000"
     borderopacity="0.25"
     inkscape:showpageshadow="2"
     inkscape:pageopacity="0.0"
     inkscape:pagecheckerboard="0"
     inkscape:deskcolor="#d1d1d1"
     inkscape:zoom="33.5"
     inkscape:cx="12.014925"
     inkscape:cy="12.925373"
     inkscape:window-width="1920"
     inkscape:window-height="1008"
     inkscape:window-x="0"
     inkscape:window-y="0"
     inkscape:window-maximized="1"
     inkscape:current-layer="svg1"
     showguides="true">
    <sodipodi:guide
       position="12.003848,20.057836"
       orientation="1,0"
       id="guide12"
       inkscape:locked="false" />
    <sodipodi:guide
       position="12.298507,23.343284"
       orientation="0,-1"
       id="guide13"
       inkscape:locked="false" />
  </sodipodi:namedview>
  <path
     d="m 24,15 c 0,2.184 -0.586,4.233 -1.61,5.999 L 20.654,19.996 C 21.505,18.525 22,16.822 22,15 22,9.477 17.523,5 12,5 6.477,5 2,9.477 2,15 c 0,1.822 0.495,3.525 1.346,4.996 L 1.61,20.999 C 0.586,19.233 0,17.184 0,15 0,8.383 5.383,3 12,3 18.617,3 24,8.383 24,15 Z"
     id="path12" />
  <path
     d="m 14.383588,15.902998 c 0.01581,1.293903 -1.020298,2.35564 -2.314201,2.371449 -0.882935,0.01079 -1.657851,-0.468781 -2.06563,-1.184852 L 4.384333,16.025168 9.975074,14.823776 c 0.390149,-0.726822 1.15313,-1.224179 2.036063,-1.234967 1.294904,-0.01582 2.356642,1.020286 2.372451,2.314189 z"
     id="path11" />
  <path
     d="M 12.648,6.662 C 12.429,6.644 12.211,6.636 11.999,6.636 c -0.212,0 -0.431,0.009 -0.65,0.026 v 2.784 c 0.216,-0.025 0.434,-0.038 0.65,-0.038 0.216,0 0.434,0.012 0.649,0.038 z"
     id="path10" />
  <path
     d="M 18.439,9.721 C 18.157,9.379 17.849,9.058 17.521,8.764 l -1.89,1.969 c 0.339,0.282 0.647,0.604 0.918,0.957 z"
     id="path9" />
  <path
     d="m 15.838,7.591 c -0.387,-0.205 -0.79,-0.379 -1.2,-0.519 l -1.024,2.573 c 0.417,0.125 0.82,0.299 1.2,0.519 z"
     id="path8" />
  <path
     d="m 6.404,13.791 c 0.121,-0.435 0.288,-0.854 0.498,-1.25 L 4.433,11.475 c -0.197,0.403 -0.364,0.822 -0.498,1.25 z"
     id="path7" />
  <path
     d="M 9.163,10.175 C 9.542,9.954 9.944,9.779 10.361,9.652 L 9.327,7.083 C 8.917,7.225 8.515,7.401 8.129,7.607 Z"
     id="path6" />
  <path
     d="m 7.448,11.69 c 0.271,-0.354 0.58,-0.675 0.919,-0.957 L 6.477,8.764 C 6.149,9.058 5.84,9.379 5.559,9.721 Z"
     id="path5" />
  <path
     d="M 20.021,12.593 C 19.88,12.166 19.707,11.749 19.505,11.351 l -2.454,1.106 c 0.217,0.394 0.39,0.81 0.517,1.242 z"
     id="path1" />
  <g
     inkscape:groupmode="layer"
     id="layer2"
     inkscape:label="Layer 1" />
</svg>
